<?xml version="1.0" encoding="UTF-8" standalone="no"?>
<!DOCTYPE svg PUBLIC "-//W3C//DTD SVG 1.1//EN" "http://www.w3.org/Graphics/SVG/1.1/DTD/svg11.dtd">
<svg version="1.1" xmlns="http://www.w3.org/2000/svg" xmlns:xlink="http://www.w3.org/1999/xlink" preserveAspectRatio="xMidYMid meet" viewBox="0 0 640 640" width="24" height="24"><defs><path d="M497.15 432.52C509.33 432.52 519.29 424.08 519.29 413.76C519.29 403.45 509.33 395.01 497.15 395.01C461.72 395.01 178.28 395.01 142.85 395.01C130.67 395.01 120.71 403.45 120.71 413.76C120.71 424.08 130.67 432.52 142.85 432.52C213.71 432.52 461.72 432.52 497.15 432.52ZM497.15 338.75C509.33 338.75 519.29 330.31 519.29 320C519.29 309.69 509.33 301.25 497.15 301.25C461.72 301.25 178.28 301.25 142.85 301.25C130.67 301.25 120.71 309.69 120.71 320C120.71 330.31 130.67 338.75 142.85 338.75C213.71 338.75 461.72 338.75 497.15 338.75ZM142.85 244.99C178.28 244.99 461.72 244.99 497.15 244.99C509.33 244.99 519.29 236.55 519.29 226.24C519.29 215.92 509.33 207.48 497.15 207.48C461.72 207.48 178.28 207.48 142.85 207.48C130.67 207.48 120.71 215.92 120.71 226.24C120.71 236.55 130.67 244.99 142.85 244.99Z" id="b1vUDGaJ1C"></path></defs><g><g><g><use xlink:href="#b1vUDGaJ1C" opacity="1" fill="#ffffff" fill-opacity="1"></use><g><use xlink:href="#b1vUDGaJ1C" opacity="1" fill-opacity="0" stroke="#ffffff" stroke-width="1" stroke-opacity="0"></use></g></g></g></g></svg>