<?xml version="1.0" standalone="no"?>
<svg viewBox="0 0 200 200" xmlns="http://www.w3.org/2000/svg">
  <path fill="#00B208" d="M31.3,-49.7C44.6,-46.6,62.2,-46.3,68.2,-38.5C74.2,-30.7,68.7,-15.4,65.9,-1.6C63.1,12.1,63.1,24.3,60.5,37.9C57.8,51.5,52.5,66.6,42,71.1C31.4,75.5,15.7,69.3,0.3,68.8C-15.1,68.3,-30.2,73.4,-44.6,71.1C-58.9,68.9,-72.5,59.3,-74.2,46.2C-75.9,33.2,-65.7,16.6,-62.8,1.6C-60,-13.3,-64.5,-26.6,-61.5,-37.4C-58.6,-48.3,-48.1,-56.7,-36.6,-60.9C-25,-65.1,-12.5,-65.1,-1.8,-62C9,-59,18,-52.9,31.3,-49.7Z" transform="translate(100 100)" />
</svg>
