<?xml version="1.0" standalone="no"?>
<svg viewBox="0 0 200 200" xmlns="http://www.w3.org/2000/svg">
  <path fill="#18FFFF" d="M50.6,-74.8C65.7,-69,78.1,-55.2,79.4,-39.9C80.6,-24.7,70.5,-8,64.8,7C59,22,57.5,35.2,49.8,42.1C42.2,48.9,28.4,49.3,15,54.8C1.7,60.4,-11.2,71.2,-23.6,71.6C-36,71.9,-47.9,61.9,-56.7,50C-65.5,38.2,-71.2,24.6,-70.7,11.6C-70.3,-1.3,-63.8,-13.7,-59.1,-28.3C-54.5,-42.8,-51.7,-59.5,-42.2,-67.9C-32.6,-76.3,-16.3,-76.4,0.7,-77.5C17.7,-78.6,35.5,-80.7,50.6,-74.8Z" transform="translate(100 100)" />
</svg>
