<?xml version="1.0" standalone="no"?>
<svg viewBox="0 0 200 200" xmlns="http://www.w3.org/2000/svg">
  <path fill="#18FFFF" d="M35.2,-59.5C48.2,-53.6,62.9,-49.2,70.4,-39.5C77.9,-29.9,78.1,-14.9,78.4,0.2C78.7,15.3,79,30.5,70,37.6C61,44.7,42.8,43.5,29.5,45.7C16.3,47.9,8.2,53.3,-2.7,58C-13.6,62.8,-27.2,66.7,-38.5,63.4C-49.8,60.2,-58.7,49.6,-61.4,37.8C-64,26,-60.3,13,-60.3,0C-60.2,-13,-63.8,-26,-62.6,-40.2C-61.4,-54.5,-55.4,-70.1,-44.2,-77C-33,-84,-16.5,-82.3,-2.7,-77.7C11.2,-73.1,22.3,-65.5,35.2,-59.5Z" transform="translate(100 100)" />
</svg>
