<?xml version="1.0" standalone="no"?>
<svg viewBox="0 0 200 200" xmlns="http://www.w3.org/2000/svg">
  <path fill="#18FFFF" d="M33.3,-54.2C46.5,-50,62.9,-47.9,70.7,-39.2C78.4,-30.5,77.6,-15.3,70.2,-4.3C62.8,6.7,48.8,13.4,44.1,27.4C39.3,41.3,43.8,62.5,38,75.5C32.2,88.6,16.1,93.5,2.7,88.8C-10.6,84.1,-21.2,69.6,-30.9,58.8C-40.5,47.9,-49.1,40.6,-50.3,31.4C-51.5,22.2,-45.2,11.1,-43.1,1.2C-41.1,-8.8,-43.3,-17.5,-42.6,-27.4C-41.8,-37.4,-38.1,-48.4,-30.5,-55.8C-22.9,-63.2,-11.5,-66.9,-0.7,-65.7C10,-64.5,20.1,-58.3,33.3,-54.2Z" transform="translate(100 100)" />
</svg>
