<?xml version="1.0" standalone="no"?>
<svg viewBox="0 0 200 200" xmlns="http://www.w3.org/2000/svg">
  <path fill="#18FFFF" d="M30.9,-55.9C36.6,-50.3,35.2,-34.9,38.6,-24C42.1,-13,50.3,-6.5,56.9,3.8C63.5,14.1,68.4,28.2,62.2,34.4C56,40.6,38.7,38.9,26.5,38.2C14.3,37.6,7.2,38,-4.5,45.9C-16.2,53.8,-32.5,69.1,-43.8,69.2C-55,69.3,-61.3,54.2,-67.5,40.1C-73.6,26,-79.7,13,-79.5,0.1C-79.3,-12.8,-72.8,-25.5,-65.3,-37.3C-57.8,-49,-49.3,-59.8,-38.2,-62.3C-27.2,-64.7,-13.6,-58.9,-0.5,-58.1C12.6,-57.3,25.3,-61.5,30.9,-55.9Z" transform="translate(100 100)" />
</svg>
